<svg width="24" height="28" viewBox="0 0 24 28" fill="none" xmlns="http://www.w3.org/2000/svg">
<path d="M18.6667 8.66667C18.6667 9.98521 18.2757 11.2741 17.5432 12.3705C16.8106 13.4668 15.7694 14.3213 14.5513 14.8259C13.3331 15.3304 11.9926 15.4625 10.6994 15.2052C9.40623 14.948 8.21835 14.3131 7.286 13.3807C6.35365 12.4484 5.71871 11.2605 5.46147 9.96727C5.20424 8.67406 5.33626 7.33362 5.84084 6.11544C6.34543 4.89727 7.19991 3.85608 8.29624 3.12354C9.39257 2.39099 10.6815 2 12 2C13.7682 2 15.4638 2.70238 16.7141 3.95262C17.9643 5.20286 18.6667 6.89856 18.6667 8.66667ZM13.3334 15.3333H10.6667C8.19135 15.3333 5.81738 16.3167 4.06704 18.067C2.3167 19.8173 1.33337 22.1913 1.33337 24.6667V24.6667C1.33337 25.0203 1.47385 25.3594 1.7239 25.6095C1.97395 25.8595 2.31309 26 2.66671 26H21.3334C21.687 26 22.0261 25.8595 22.2762 25.6095C22.5262 25.3594 22.6667 25.0203 22.6667 24.6667C22.6667 22.1913 21.6834 19.8173 19.933 18.067C18.1827 16.3167 15.8087 15.3333 13.3334 15.3333V15.3333Z" stroke="#9A9A9A" stroke-width="2.5" stroke-linecap="round" stroke-linejoin="round"/>
</svg>
