<svg width="32" height="32" viewBox="0 0 32 32" fill="none" xmlns="http://www.w3.org/2000/svg">
<path d="M26.6667 22.6669V15.2696C26.6667 14.5572 26.6661 14.2008 26.5795 13.8692C26.5027 13.5754 26.3767 13.2974 26.2061 13.0462C26.0137 12.7627 25.7461 12.5276 25.2099 12.0584L18.8099 6.45843C17.8145 5.58739 17.3167 5.15208 16.7566 4.98643C16.263 4.84046 15.7369 4.84046 15.2433 4.98643C14.6835 5.15196 14.1865 5.58685 13.1925 6.45658L6.79041 12.0584C6.25423 12.5276 5.98676 12.7627 5.79431 13.0462C5.62376 13.2974 5.49677 13.5754 5.42 13.8692C5.33337 14.2008 5.33337 14.5572 5.33337 15.2696V22.6669C5.33337 23.9094 5.33337 24.5304 5.53636 25.0205C5.80701 25.6739 6.3258 26.1936 6.97921 26.4643C7.46926 26.6673 8.09052 26.6673 9.33303 26.6673C10.5755 26.6673 11.1975 26.6673 11.6875 26.4643C12.3409 26.1936 12.8596 25.674 13.1302 25.0206C13.3332 24.5305 13.3334 23.9093 13.3334 22.6668V21.3334C13.3334 19.8607 14.5273 18.6668 16 18.6668C17.4728 18.6668 18.6667 19.8607 18.6667 21.3334V22.6668C18.6667 23.9093 18.6667 24.5305 18.8697 25.0206C19.1403 25.674 19.6591 26.1936 20.3125 26.4643C20.8026 26.6673 21.4239 26.6673 22.6664 26.6673C23.9089 26.6673 24.5308 26.6673 25.0209 26.4643C25.6743 26.1936 26.1929 25.6739 26.4636 25.0205C26.6666 24.5304 26.6667 23.9094 26.6667 22.6669Z" stroke="#9A9A9A" stroke-width="2.08333" stroke-linecap="round" stroke-linejoin="round"/>
</svg>
