<svg width="32" height="32" viewBox="0 0 32 32" fill="none" xmlns="http://www.w3.org/2000/svg">
<path d="M2.66663 26.6666H5.33329M5.33329 26.6666H16M5.33329 26.6666V9.60018C5.33329 8.10671 5.33329 7.35941 5.62394 6.78898C5.8796 6.28722 6.28726 5.87956 6.78902 5.6239C7.35945 5.33325 8.10675 5.33325 9.60022 5.33325H11.7336C13.227 5.33325 13.9734 5.33325 14.5438 5.6239C15.0456 5.87956 15.4539 6.28722 15.7096 6.78898C16 7.35885 16 8.10524 16 9.5958V13.6614M16 26.6666H26.6666M16 26.6666V13.6614M26.6666 26.6666H29.3333M26.6666 26.6666V19.1575C26.6666 18.4572 26.6666 18.1065 26.5826 17.7799C26.5082 17.4903 26.3852 17.2157 26.2195 16.9668C26.0326 16.686 25.7726 16.4517 25.2515 15.9835L22.1849 13.2284C21.1769 12.3229 20.6726 11.8702 20.1028 11.6985C19.6009 11.5472 19.0653 11.5472 18.5634 11.6985C17.9937 11.8702 17.4896 12.3231 16.4819 13.2284L16 13.6614" stroke="#9A9A9A" stroke-width="2.08333" stroke-linecap="round" stroke-linejoin="round"/>
</svg>
