<svg width="21" height="20" viewBox="0 0 21 20" fill="none" xmlns="http://www.w3.org/2000/svg">
<path fill-rule="evenodd" clip-rule="evenodd" d="M5.5 0C6.28897 0 6.92857 0.639593 6.92857 1.42857V2.85714H14.0716V1.42857C14.0716 0.639593 14.7112 0 15.5001 0C16.2891 0 16.9287 0.639593 16.9287 1.42857V2.85714H18.3571C19.5406 2.85714 20.5 3.81653 20.5 5V6.42857H0.5V5C0.5 3.81653 1.45939 2.85714 2.64286 2.85714H4.07143V1.42857C4.07143 0.639593 4.71103 0 5.5 0Z" fill="#8B5CF6"/>
<path d="M0.5 6.42857H20.5V17.8571C20.5 19.0406 19.5406 20 18.3571 20H2.64286C1.45939 20 0.5 19.0406 0.5 17.8571V6.42857Z" fill="white"/>
<path fill-rule="evenodd" clip-rule="evenodd" d="M12.7323 8.31889C12.6653 8.25187 12.5743 8.21423 12.4795 8.21429C12.3848 8.21434 12.2939 8.25206 12.2269 8.31916L6.33722 14.2214C6.28255 14.2762 6.24716 14.3473 6.23636 14.4239L5.86043 17.093C5.84482 17.2039 5.88203 17.3156 5.96096 17.3949C6.03989 17.4741 6.1514 17.5119 6.26226 17.4967L8.93143 17.1333C9.0088 17.1229 9.08057 17.0871 9.13579 17.032L15.0381 11.1297C15.1775 10.9903 15.1775 10.7641 15.0381 10.6247L12.7323 8.31889Z" fill="#8B5CF6"/>
</svg>
