<svg width="24" height="27" viewBox="0 0 24 27" fill="none" xmlns="http://www.w3.org/2000/svg">
<path d="M6.66671 4.33329H5.6003C4.10683 4.33329 3.35953 4.33329 2.7891 4.62394C2.28734 4.8796 1.87969 5.28726 1.62402 5.78902C1.33337 6.35945 1.33337 7.10675 1.33337 8.60022V9.66663M6.66671 4.33329H17.3334M6.66671 4.33329V1.66663M17.3334 4.33329H18.4003C19.8938 4.33329 20.6395 4.33329 21.2099 4.62394C21.7117 4.8796 22.1207 5.28726 22.3763 5.78902C22.6667 6.3589 22.6667 7.10528 22.6667 8.59584V9.66663M17.3334 4.33329V1.66663M1.33337 9.66663V21.4002C1.33337 22.8937 1.33337 23.64 1.62402 24.2105C1.87969 24.7122 2.28734 25.1206 2.7891 25.3763C3.35898 25.6666 4.10537 25.6666 5.59592 25.6666H18.4042C19.8947 25.6666 20.64 25.6666 21.2099 25.3763C21.7117 25.1206 22.1207 24.7122 22.3763 24.2105C22.6667 23.6406 22.6667 22.8953 22.6667 21.4047V9.66663M1.33337 9.66663H22.6667M17.3334 20.3333H17.336L17.336 20.336L17.3334 20.3359V20.3333ZM12 20.3333H12.0027L12.0026 20.336L12 20.3359V20.3333ZM6.66671 20.3333H6.66937L6.66931 20.336L6.66671 20.3359V20.3333ZM17.336 15V15.0026L17.3334 15.0026V15H17.336ZM12 15H12.0027L12.0026 15.0026L12 15.0026V15ZM6.66671 15H6.66937L6.66931 15.0026L6.66671 15.0026V15Z" stroke="#9A9A9A" stroke-width="2.08333" stroke-linecap="round" stroke-linejoin="round"/>
</svg>
