<svg width="30" height="30" viewBox="0 0 30 30" fill="none" xmlns="http://www.w3.org/2000/svg">
<path d="M28.2933 23.44C28.2933 23.92 28.1866 24.4133 27.96 24.8933C27.7333 25.3733 27.44 25.8266 27.0533 26.2533C26.4 26.9733 25.68 27.4933 24.8666 27.8266C24.0666 28.16 23.2 28.3333 22.2666 28.3333C20.9066 28.3333 19.4533 28.0133 17.92 27.36C16.3866 26.7066 14.8533 25.8266 13.3333 24.72C11.7841 23.5868 10.3222 22.3388 8.95996 20.9866C7.61165 19.6293 6.36809 18.1718 5.23996 16.6266C4.14663 15.1066 3.26663 13.5866 2.62663 12.08C1.98663 10.56 1.66663 9.10663 1.66663 7.71996C1.66663 6.81329 1.82663 5.94663 2.14663 5.14663C2.46663 4.33329 2.97329 3.58663 3.67996 2.91996C4.53329 2.07996 5.46663 1.66663 6.45329 1.66663C6.82663 1.66663 7.19996 1.74663 7.53329 1.90663C7.87996 2.06663 8.18663 2.30663 8.42663 2.65329L11.52 7.01329C11.76 7.34663 11.9333 7.65329 12.0533 7.94663C12.1733 8.22663 12.24 8.50663 12.24 8.75996C12.24 9.07996 12.1466 9.39996 11.96 9.70663C11.7866 10.0133 11.5333 10.3333 11.2133 10.6533L10.2 11.7066C10.0533 11.8533 9.98663 12.0266 9.98663 12.24C9.98663 12.3466 9.99996 12.44 10.0266 12.5466C10.0666 12.6533 10.1066 12.7333 10.1333 12.8133C10.3733 13.2533 10.7866 13.8266 11.3733 14.52C11.9733 15.2133 12.6133 15.92 13.3066 16.6266C14.0266 17.3333 14.72 17.9866 15.4266 18.5866C16.12 19.1733 16.6933 19.5733 17.1466 19.8133C17.2133 19.84 17.2933 19.88 17.3866 19.92C17.4933 19.96 17.6 19.9733 17.72 19.9733C17.9466 19.9733 18.12 19.8933 18.2666 19.7466L19.28 18.7466C19.6133 18.4133 19.9333 18.16 20.24 18C20.5466 17.8133 20.8533 17.72 21.1866 17.72C21.44 17.72 21.7066 17.7733 22 17.8933C22.2933 18.0133 22.6 18.1866 22.9333 18.4133L27.3466 21.5466C27.6933 21.7866 27.9333 22.0666 28.08 22.4C28.2133 22.7333 28.2933 23.0666 28.2933 23.44Z" stroke="#9A9A9A" stroke-width="2.08333" stroke-miterlimit="10"/>
</svg>
