<svg width="24" height="24" viewBox="0 0 24 24" fill="none" xmlns="http://www.w3.org/2000/svg">
<g clip-path="url(#clip0_7_13087)">
<path d="M23.1645 4.3407C23.1645 6.2765 21.5953 7.84579 19.6593 7.84579C17.7236 7.84579 16.1543 6.27651 16.1543 4.3407C16.1543 2.40488 17.7236 0.835594 19.6593 0.835594C21.5953 0.835594 23.1645 2.40489 23.1645 4.3407Z" stroke="#9DB2CE" stroke-width="1.5"/>
<path d="M11.9967 0.829523C12.4672 0.829256 12.9359 0.858701 13.4003 0.917242C12.8432 1.93368 12.5263 3.10078 12.5263 4.34076C12.5263 8.28001 15.7197 11.4734 19.6589 11.4734C20.9 11.4734 22.0681 11.1559 23.0852 10.598C23.2501 11.9018 23.184 13.2275 22.8871 14.5136C22.5088 16.1516 21.7655 17.683 20.7129 18.9939C19.6604 20.3048 18.3255 21.3611 16.8079 22.0842C15.2902 22.8072 13.6289 23.1785 11.9478 23.1701C10.356 23.1623 8.78526 22.8143 7.34058 22.1507L7.12621 22.0522L6.89408 22.0942L0.952397 23.1685L0.952071 23.1686C0.914614 23.1754 0.875911 23.1615 0.85103 23.1317C0.826363 23.1021 0.819457 23.0617 0.833034 23.0255C0.833043 23.0255 0.833051 23.0254 0.833059 23.0254L2.53743 18.4908L2.66639 18.1477L2.47491 17.8352C1.49443 16.2347 0.931828 14.4108 0.842286 12.5315C0.746121 10.5133 1.1992 8.50671 2.15325 6.72557C3.10731 4.94443 4.52663 3.45541 6.26002 2.41711C7.99333 1.37888 9.97606 0.830196 11.9966 0.829523L11.9967 0.829523Z" stroke="#9DB2CE" stroke-width="1.5"/>
</g>
<defs>
<clipPath id="clip0_7_13087">
<rect width="24" height="24" fill="white"/>
</clipPath>
</defs>
</svg>
