<svg width="24" height="24" viewBox="0 0 24 24" fill="none" xmlns="http://www.w3.org/2000/svg">
<path d="M23.1642 4.3408C23.1642 6.2766 21.595 7.84589 19.659 7.84589C17.7233 7.84589 16.154 6.27661 16.154 4.3408C16.154 2.40498 17.7233 0.835693 19.659 0.835693C21.595 0.835693 23.1642 2.40499 23.1642 4.3408Z" stroke="#9DB2CE" stroke-width="1.5"/>
<path d="M11.9969 0.829592C12.4674 0.829324 12.9361 0.85877 13.4005 0.917311C12.8434 1.93375 12.5265 3.10085 12.5265 4.34083C12.5265 8.28007 15.7199 11.4735 19.6591 11.4735C20.9002 11.4735 22.0683 11.156 23.0854 10.598C23.2503 11.9019 23.1842 13.2276 22.8873 14.5137C22.509 16.1516 21.7657 17.6831 20.7131 18.994C19.6606 20.3048 18.3256 21.3612 16.808 22.0842C15.2904 22.8073 13.6291 23.1785 11.948 23.1702C10.3561 23.1623 8.78544 22.8144 7.34077 22.1508L7.1264 22.0523L6.89426 22.0943L0.95258 23.1686L0.952255 23.1687C0.914797 23.1755 0.876094 23.1616 0.851213 23.1318C0.826546 23.1022 0.81964 23.0618 0.833217 23.0255C0.833226 23.0255 0.833234 23.0255 0.833242 23.0255L2.53761 18.4909L2.66657 18.1478L2.47509 17.8353C1.49462 16.2348 0.932011 14.4109 0.842469 12.5316C0.746304 10.5134 1.19938 8.50678 2.15344 6.72564C3.1075 4.94449 4.52681 3.45548 6.26021 2.41718C7.99351 1.37895 9.97624 0.830265 11.9967 0.829592L11.9969 0.829592Z" stroke="#9DB2CE" stroke-width="1.5"/>
</svg>
