<svg width="24" height="24" viewBox="0 0 24 24" fill="none" xmlns="http://www.w3.org/2000/svg">
<g clip-path="url(#clip0_9_26623)">
<path d="M23.1645 4.3408C23.1645 6.2766 21.5953 7.84589 19.6593 7.84589C17.7236 7.84589 16.1543 6.27661 16.1543 4.3408C16.1543 2.40498 17.7236 0.835693 19.6593 0.835693C21.5953 0.835693 23.1645 2.40499 23.1645 4.3408Z" stroke="#9DB2CE" stroke-width="1.5"/>
<path d="M11.9967 0.829592C12.4672 0.829324 12.9359 0.85877 13.4003 0.917311C12.8432 1.93375 12.5263 3.10085 12.5263 4.34083C12.5263 8.28007 15.7197 11.4735 19.6589 11.4735C20.9 11.4735 22.0681 11.156 23.0852 10.598C23.2501 11.9019 23.184 13.2276 22.8871 14.5137C22.5088 16.1516 21.7655 17.6831 20.7129 18.994C19.6604 20.3048 18.3255 21.3612 16.8079 22.0842C15.2902 22.8073 13.6289 23.1785 11.9478 23.1702C10.356 23.1623 8.78526 22.8144 7.34058 22.1508L7.12621 22.0523L6.89408 22.0943L0.952397 23.1686L0.952071 23.1687C0.914614 23.1755 0.875911 23.1616 0.85103 23.1318C0.826363 23.1022 0.819457 23.0618 0.833034 23.0255C0.833043 23.0255 0.833051 23.0255 0.833059 23.0255L2.53743 18.4909L2.66639 18.1478L2.47491 17.8353C1.49443 16.2348 0.931828 14.4109 0.842286 12.5316C0.746121 10.5134 1.1992 8.50678 2.15325 6.72564C3.10731 4.94449 4.52663 3.45548 6.26002 2.41718C7.99333 1.37895 9.97606 0.830265 11.9966 0.829592L11.9967 0.829592Z" stroke="#9DB2CE" stroke-width="1.5"/>
</g>
<defs>
<clipPath id="clip0_9_26623">
<rect width="24" height="24" fill="white"/>
</clipPath>
</defs>
</svg>
