<svg width="28" height="22" viewBox="0 0 28 22" fill="none" xmlns="http://www.w3.org/2000/svg">
<path d="M7.33333 6.99996L13.1733 11.6533C13.4087 11.8393 13.7 11.9405 14 11.9405C14.3 11.9405 14.5913 11.8393 14.8267 11.6533L20.6667 6.99996M24.6667 20.3333H3.33333C2.97971 20.3333 2.64057 20.1928 2.39052 19.9428C2.14048 19.6927 2 19.3536 2 19V2.99996C2 2.64634 2.14048 2.3072 2.39052 2.05715C2.64057 1.8071 2.97971 1.66663 3.33333 1.66663H24.6667C25.0203 1.66663 25.3594 1.8071 25.6095 2.05715C25.8595 2.3072 26 2.64634 26 2.99996V19C26 19.3536 25.8595 19.6927 25.6095 19.9428C25.3594 20.1928 25.0203 20.3333 24.6667 20.3333Z" stroke="#979AA0" stroke-width="2.08333" stroke-linecap="round" stroke-linejoin="round"/>
</svg>
