<svg width="28" height="28" viewBox="0 0 28 28" fill="none" xmlns="http://www.w3.org/2000/svg">
<path d="M26.6667 1.33325L19.3334 8.66659M26.6667 1.33325H18M26.6667 1.33325V9.99992M11.6667 26.6666C13.0237 26.6666 14.3674 26.3993 15.6211 25.88C16.8748 25.3607 18.0139 24.5996 18.9735 23.64C19.933 22.6805 20.6942 21.5413 21.2135 20.2876C21.7328 19.034 22 17.6902 22 16.3333C22 14.9763 21.7328 13.6326 21.2135 12.3789C20.6942 11.1252 19.933 9.98602 18.9735 9.02648C18.0139 8.06694 16.8748 7.3058 15.6211 6.7865C14.3674 6.2672 13.0237 5.99992 11.6667 5.99992C8.92614 5.99992 6.29781 7.08861 4.35994 9.02648C2.42206 10.9644 1.33337 13.5927 1.33337 16.3333C1.33337 19.0738 2.42206 21.7021 4.35994 23.64C6.29781 25.5779 8.92614 26.6666 11.6667 26.6666Z" stroke="#9A9A9A" stroke-width="2.5" stroke-linecap="round" stroke-linejoin="round"/>
</svg>
