<svg width="21" height="21" viewBox="0 0 21 21" fill="none" xmlns="http://www.w3.org/2000/svg">
<path fill-rule="evenodd" clip-rule="evenodd" d="M5.5252 1.69342C5.99404 1.22457 6.62993 0.961182 7.29297 0.961182H13.0073C13.6703 0.961182 14.3062 1.22457 14.775 1.69342C15.2438 2.16226 15.5073 2.79815 15.5073 3.46119V6.31833C15.5073 6.91006 15.0275 7.38976 14.4358 7.38976C13.8441 7.38976 13.3644 6.91006 13.3644 6.31833V3.46119C13.3644 3.36646 13.3268 3.27562 13.2598 3.20865C13.1928 3.14166 13.102 3.10405 13.0073 3.10405H7.29297C7.19825 3.10405 7.10741 3.14166 7.04043 3.20865C6.97345 3.27562 6.93583 3.36646 6.93583 3.46119V6.31833C6.93583 6.91006 6.45613 7.38976 5.8644 7.38976C5.27267 7.38976 4.79297 6.91006 4.79297 6.31833V3.46119C4.79297 2.79815 5.05635 2.16226 5.5252 1.69342Z" fill="white"/>
<path d="M2.29325 5.21875C1.10978 5.21875 0.150391 6.17814 0.150391 7.36161V18.7902C0.150391 19.9736 1.10978 20.933 2.29325 20.933H18.0075C19.191 20.933 20.1504 19.9736 20.1504 18.7902V7.36161C20.1504 6.17814 19.191 5.21875 18.0075 5.21875H2.29325Z" fill="#8B5CF6"/>
</svg>
