<svg width="22" height="27" viewBox="0 0 22 27" fill="none" xmlns="http://www.w3.org/2000/svg">
<path d="M1.66663 11.2305C1.66663 17.6996 7.32593 23.0492 9.83088 25.1003C10.1894 25.3938 10.3708 25.5423 10.6382 25.6176C10.8465 25.6763 11.153 25.6763 11.3613 25.6176C11.6293 25.5422 11.8094 25.3951 12.1692 25.1005C14.6742 23.0494 20.3332 17.7002 20.3332 11.2311C20.3332 8.78291 19.3499 6.43474 17.5996 4.70363C15.8492 2.97252 13.4754 2 11.0001 2C8.52471 2 6.15064 2.97267 4.4003 4.70378C2.64996 6.43488 1.66663 8.78232 1.66663 11.2305Z" stroke="#9A9A9A" stroke-width="2.08333" stroke-linecap="round" stroke-linejoin="round"/>
<path d="M8.33329 10C8.33329 11.4728 9.5272 12.6667 11 12.6667C12.4727 12.6667 13.6666 11.4728 13.6666 10C13.6666 8.52724 12.4727 7.33333 11 7.33333C9.5272 7.33333 8.33329 8.52724 8.33329 10Z" stroke="#9A9A9A" stroke-width="2.08333" stroke-linecap="round" stroke-linejoin="round"/>
</svg>
