<svg width="32" height="32" viewBox="0 0 32 32" fill="none" xmlns="http://www.w3.org/2000/svg">
<path d="M25.4932 12.16C24.9732 12.16 24.5599 12.5733 24.5599 13.0933V15.2C24.5599 19.92 20.7199 23.76 15.9999 23.76C11.2799 23.76 7.43991 19.92 7.43991 15.2V13.08C7.43991 12.56 7.02658 12.1467 6.50658 12.1467C5.98658 12.1467 5.57324 12.56 5.57324 13.08V15.1867C5.57324 20.6133 9.74658 25.08 15.0666 25.56V28.4C15.0666 28.92 15.4799 29.3333 15.9999 29.3333C16.5199 29.3333 16.9332 28.92 16.9332 28.4V25.56C22.2399 25.0933 26.4266 20.6133 26.4266 15.1867V13.08C26.4207 12.8355 26.3201 12.6029 26.1459 12.4313C25.9718 12.2596 25.7378 12.1624 25.4932 12.16Z" fill="#8B5CF6"/>
<path d="M15.9973 2.66669C12.744 2.66669 10.104 5.30669 10.104 8.56002V15.3867C10.104 18.64 12.744 21.28 15.9973 21.28C19.2507 21.28 21.8907 18.64 21.8907 15.3867V8.56002C21.8907 5.30669 19.2507 2.66669 15.9973 2.66669ZM17.744 11.9334C17.6507 12.28 17.344 12.5067 16.9973 12.5067C16.9307 12.5067 16.864 12.4934 16.7973 12.48C16.2773 12.3334 15.7307 12.3334 15.2107 12.48C14.784 12.6 14.3707 12.3467 14.264 11.9334C14.144 11.52 14.3973 11.0934 14.8107 10.9867C15.5973 10.7734 16.424 10.7734 17.2107 10.9867C17.6107 11.0934 17.8507 11.52 17.744 11.9334ZM18.4507 9.34669C18.3957 9.49648 18.2956 9.62559 18.1643 9.7163C18.0331 9.80701 17.8769 9.85488 17.7173 9.85335C17.624 9.85335 17.544 9.84002 17.4507 9.81335C16.5173 9.46669 15.4773 9.46669 14.544 9.81335C14.3494 9.88234 14.1355 9.87208 13.9485 9.78477C13.7614 9.69747 13.6161 9.54013 13.544 9.34669C13.3973 8.94669 13.6107 8.49335 14.0107 8.36002C15.294 7.89335 16.7007 7.89335 17.984 8.36002C18.384 8.50669 18.5973 8.94669 18.4507 9.34669Z" fill="#8B5CF6"/>
</svg>
