<svg width="32" height="32" viewBox="0 0 32 32" fill="none" xmlns="http://www.w3.org/2000/svg">
<path d="M21.4133 18.36L26.56 21.92C26.9602 22.1985 27.2945 22.5614 27.5392 22.9831C27.7839 23.4048 27.9331 23.875 27.9764 24.3607C28.0196 24.8464 27.9557 25.3356 27.7893 25.7939C27.6229 26.2522 27.3579 26.6684 27.0132 27.0131C26.6684 27.3579 26.2522 27.6228 25.7939 27.7893C25.3356 27.9557 24.8464 28.0195 24.3607 27.9763C23.8751 27.9331 23.4048 27.7839 22.9831 27.5392C22.5614 27.2945 22.1985 26.9602 21.92 26.56L18.3467 21.4" stroke="#838383" stroke-width="2.5" stroke-linecap="round" stroke-linejoin="round"/>
<path d="M13.3333 22.6667C18.488 22.6667 22.6667 18.488 22.6667 13.3333C22.6667 8.17868 18.488 4 13.3333 4C8.17868 4 4 8.17868 4 13.3333C4 18.488 8.17868 22.6667 13.3333 22.6667Z" stroke="#838383" stroke-width="2.5" stroke-linecap="round" stroke-linejoin="round"/>
</svg>
