<svg width="32" height="32" viewBox="0 0 32 32" fill="none" xmlns="http://www.w3.org/2000/svg">
<path d="M25.4119 10.8234H19.7649H25.4119ZM10.3531 10.8234H6.58838H10.3531ZM14.1178 14.1175C14.5504 14.1175 14.9787 14.0323 15.3784 13.8668C15.7781 13.7012 16.1412 13.4586 16.4471 13.1527C16.753 12.8468 16.9956 12.4837 17.1612 12.084C17.3267 11.6844 17.4119 11.256 17.4119 10.8234C17.4119 10.3908 17.3267 9.96247 17.1612 9.56281C16.9956 9.16315 16.753 8.80001 16.4471 8.49412C16.1412 8.18823 15.7781 7.94559 15.3784 7.78005C14.9787 7.6145 14.5504 7.5293 14.1178 7.5293C13.2441 7.5293 12.4063 7.87635 11.7885 8.49412C11.1707 9.11189 10.8237 9.94976 10.8237 10.8234C10.8237 11.6971 11.1707 12.5349 11.7885 13.1527C12.4063 13.7705 13.2441 14.1175 14.1178 14.1175ZM25.4119 21.1764H21.6472H25.4119ZM12.2354 21.1764H6.58838H12.2354ZM17.8825 24.4705C18.7562 24.4705 19.594 24.1234 20.2118 23.5057C20.8296 22.8879 21.1766 22.05 21.1766 21.1764C21.1766 20.3027 20.8296 19.4648 20.2118 18.8471C19.594 18.2293 18.7562 17.8822 17.8825 17.8822C17.0088 17.8822 16.171 18.2293 15.5532 18.8471C14.9354 19.4648 14.5884 20.3027 14.5884 21.1764C14.5884 22.05 14.9354 22.8879 15.5532 23.5057C16.171 24.1234 17.0088 24.4705 17.8825 24.4705Z" fill="#8B5CF6"/>
<path d="M25.4119 10.8234H19.7649M10.3531 10.8234H6.58838M25.4119 21.1764H21.6472M12.2354 21.1764H6.58838M14.1178 14.1175C14.5504 14.1175 14.9787 14.0323 15.3784 13.8668C15.7781 13.7012 16.1412 13.4586 16.4471 13.1527C16.753 12.8468 16.9956 12.4837 17.1612 12.084C17.3267 11.6844 17.4119 11.256 17.4119 10.8234C17.4119 10.3908 17.3267 9.96247 17.1612 9.56281C16.9956 9.16315 16.753 8.80001 16.4471 8.49412C16.1412 8.18823 15.7781 7.94559 15.3784 7.78005C14.9787 7.6145 14.5504 7.5293 14.1178 7.5293C13.2441 7.5293 12.4063 7.87635 11.7885 8.49412C11.1707 9.11189 10.8237 9.94976 10.8237 10.8234C10.8237 11.6971 11.1707 12.5349 11.7885 13.1527C12.4063 13.7705 13.2441 14.1175 14.1178 14.1175ZM17.8825 24.4705C18.7562 24.4705 19.594 24.1234 20.2118 23.5057C20.8296 22.8879 21.1766 22.05 21.1766 21.1764C21.1766 20.3027 20.8296 19.4648 20.2118 18.8471C19.594 18.2293 18.7562 17.8822 17.8825 17.8822C17.0088 17.8822 16.171 18.2293 15.5532 18.8471C14.9354 19.4648 14.5884 20.3027 14.5884 21.1764C14.5884 22.05 14.9354 22.8879 15.5532 23.5057C16.171 24.1234 17.0088 24.4705 17.8825 24.4705Z" stroke="#8B5CF6" stroke-width="1.5" stroke-miterlimit="10" stroke-linecap="round" stroke-linejoin="round"/>
</svg>
