<svg width="12" height="20" viewBox="0 0 12 20" fill="none" xmlns="http://www.w3.org/2000/svg">
<path d="M5.99734 0.666687C2.744 0.666687 0.104004 3.30669 0.104004 6.56002V13.3867C0.104004 16.64 2.744 19.28 5.99734 19.28C9.25067 19.28 11.8907 16.64 11.8907 13.3867V6.56002C11.8907 3.30669 9.25067 0.666687 5.99734 0.666687ZM7.744 9.93335C7.65067 10.28 7.344 10.5067 6.99734 10.5067C6.93067 10.5067 6.864 10.4934 6.79734 10.48C6.27734 10.3334 5.73067 10.3334 5.21067 10.48C4.784 10.6 4.37067 10.3467 4.264 9.93335C4.144 9.52002 4.39734 9.09335 4.81067 8.98669C5.59734 8.77335 6.424 8.77335 7.21067 8.98669C7.61067 9.09335 7.85067 9.52002 7.744 9.93335ZM8.45067 7.34669C8.39565 7.49648 8.29564 7.62559 8.16434 7.7163C8.03305 7.80701 7.87691 7.85488 7.71734 7.85335C7.624 7.85335 7.544 7.84002 7.45067 7.81335C6.51734 7.46669 5.47734 7.46669 4.544 7.81335C4.34943 7.88234 4.13553 7.87208 3.94845 7.78477C3.76137 7.69747 3.61611 7.54013 3.544 7.34669C3.39734 6.94669 3.61067 6.49335 4.01067 6.36002C5.29401 5.89335 6.70067 5.89335 7.984 6.36002C8.384 6.50669 8.59734 6.94669 8.45067 7.34669Z" fill="#8B5CF6"/>
</svg>
