<svg width="22" height="18" viewBox="0 0 22 18" fill="none" xmlns="http://www.w3.org/2000/svg">
<path d="M20.4932 0.160001C19.9732 0.160001 19.5599 0.573334 19.5599 1.09333V3.2C19.5599 7.92 15.7199 11.76 10.9999 11.76C6.27991 11.76 2.43991 7.92 2.43991 3.2V1.08C2.43991 0.560002 2.02658 0.146667 1.50658 0.146667C0.986576 0.146667 0.573242 0.560002 0.573242 1.08V3.18667C0.573242 8.61334 4.74658 13.08 10.0666 13.56V16.4C10.0666 16.92 10.4799 17.3333 10.9999 17.3333C11.5199 17.3333 11.9332 16.92 11.9332 16.4V13.56C17.2399 13.0933 21.4266 8.61334 21.4266 3.18667V1.08C21.4207 0.835547 21.3201 0.602938 21.1459 0.431281C20.9718 0.259624 20.7378 0.162352 20.4932 0.160001Z" fill="#8B5CF6"/>
</svg>
